<svg 
    version="1.0" 
    xmlns="http://www.w3.org/2000/svg"
    width="100.000000pt"
    height="100.000000pt"
    viewBox="0 0 100.000000 100.000000"
    preserveAspectRatio="xMidYMid meet"
>
    <g 
        transform="translate(0.000000,100.000000) scale(0.100000,-0.100000)"
        fill="currentcolor"
        stroke="none"
    >
        <path d="M85 915 c-24 -23 -25 -28 -25 -175 0 -147 1 -152 25 -175 23 -24 28
        -25 175 -25 147 0 152 1 175 25 24 23 25 28 25 175 0 147 -1 152 -25 175 -23
        24 -28 25 -175 25 -147 0 -152 -1 -175 -25z"/>
        <path d="M565 915 c-24 -23 -25 -28 -25 -175 0 -147 1 -152 25 -175 23 -24 28
        -25 175 -25 147 0 152 1 175 25 24 23 25 28 25 175 0 147 -1 152 -25 175 -23
        24 -28 25 -175 25 -147 0 -152 -1 -175 -25z m295 -175 l0 -120 -120 0 -120 0
        0 120 0 120 120 0 120 0 0 -120z"/>
        <path d="M85 435 c-24 -23 -25 -28 -25 -175 0 -147 1 -152 25 -175 23 -24 28
        -25 175 -25 147 0 152 1 175 25 24 23 25 28 25 175 0 147 -1 152 -25 175 -23
        24 -28 25 -175 25 -147 0 -152 -1 -175 -25z m143 -75 c7 -11 21 -20 32 -20 11
        0 25 9 32 20 9 14 24 20 50 20 37 0 38 -1 38 -38 0 -26 -6 -41 -20 -50 -11 -7
        -20 -21 -20 -32 0 -11 9 -25 20 -32 14 -9 20 -24 20 -50 0 -37 -1 -38 -38 -38
        -26 0 -41 6 -50 20 -7 11 -21 20 -32 20 -11 0 -25 -9 -32 -20 -9 -14 -24 -20
        -50 -20 -37 0 -38 1 -38 38 0 26 6 41 20 50 26 16 26 48 0 64 -14 9 -20 24
        -20 50 0 37 1 38 38 38 26 0 41 -6 50 -20z"/>
        <path d="M565 435 c-24 -23 -25 -28 -25 -175 0 -147 1 -152 25 -175 23 -24 28
        -25 175 -25 147 0 152 1 175 25 24 23 25 28 25 175 0 147 -1 152 -25 175 -23
        24 -28 25 -175 25 -147 0 -152 -1 -175 -25z m255 -75 c0 -13 7 -20 20 -20 18
        0 20 -7 20 -80 0 -73 -2 -80 -20 -80 -13 0 -20 -7 -20 -20 0 -18 -7 -20 -80
        -20 -73 0 -80 2 -80 20 0 13 -7 20 -20 20 -18 0 -20 7 -20 80 0 73 2 80 20 80
        13 0 20 7 20 20 0 18 7 20 80 20 73 0 80 -2 80 -20z"/>
        <path d="M700 260 l0 -40 40 0 40 0 0 40 0 40 -40 0 -40 0 0 -40z"/>
    </g>
</svg>