<svg 
    version="1.0" 
    xmlns="http://www.w3.org/2000/svg"
    width="22px"
    height="22px"
    viewBox="0 0 100.000000 100.000000"
    preserveAspectRatio="xMidYMid meet"
>
    <g 
        transform="translate(0.000000,100.000000) scale(0.100000,-0.100000)"
        fill="currentcolor" 
        stroke="none"
    >
        <path d="M465 859 c-123 -38 -128 -206 -7 -249 37 -13 47 -13 84 0 80 28 113
        123 68 195 -28 46 -93 70 -145 54z"/>
        <path d="M211 757 c-70 -24 -98 -116 -54 -175 40 -54 134 -60 178 -12 17 18
        16 21 -9 71 -14 29 -26 68 -26 86 0 22 -5 33 -14 33 -8 0 -20 2 -28 4 -7 3
        -28 0 -47 -7z"/>
        <path d="M723 763 c-18 -4 -23 -11 -23 -37 0 -18 -12 -56 -26 -85 -25 -50 -26
        -53 -9 -71 39 -43 131 -43 169 -1 75 83 0 214 -111 194z"/>
        <path d="M415 511 c-74 -33 -115 -104 -115 -198 l0 -43 85 0 c74 0 85 2 85 18
        0 36 50 123 96 166 l47 46 -36 15 c-49 20 -113 19 -162 -4z"/>
        <path d="M201 458 c-18 -5 -44 -16 -58 -25 -33 -22 -73 -93 -73 -131 l0 -32
        80 0 80 0 0 43 c0 24 7 66 15 93 22 72 22 72 -44 52z"/>
        <path d="M717 459 c-113 -27 -180 -112 -180 -229 0 -135 126 -245 261 -226 99
        13 185 99 198 198 21 156 -128 294 -279 257z m181 -154 c2 -15 -21 -44 -76
        -98 -44 -42 -84 -77 -89 -77 -5 0 -30 22 -56 48 -32 32 -46 54 -42 64 12 30
        37 30 67 1 l29 -27 57 57 c43 44 63 57 82 55 16 -2 26 -10 28 -23z"/>
    </g>
</svg>