<svg 
    width="22"
    height="22"
    viewBox="0 0 14 16"
    fill="none"
    xmlns="http://www.w3.org/2000/svg"
>
    <g style="mix-blend-mode:darken">
        <rect y="0.966827" width="14" height="14.3162" fill="currentcolor"/>
    </g>
    <path 
        d="M8.2 4.64901V3.3797C8.19999 3.1874 8.16555 2.99721 8.09886 2.82112C8.03217 2.64504 7.93467 2.4869 7.81253 2.35669C7.69039 2.22649 7.54627 2.12706 7.38927 2.06468C7.23227 2.0023 7.0658 1.97834 6.9004 1.9943L2.1004 2.45726C1.80043 2.4862 1.52081 2.6447 1.31698 2.90131C1.11315 3.15793 1.00001 3.49392 1 3.84265V12.4067C1.00001 12.7554 1.11315 13.0914 1.31698 13.348C1.52081 13.6046 1.80043 13.7631 2.1004 13.7921L6.9004 14.2557C7.06585 14.2717 7.23237 14.2477 7.38941 14.1853C7.54645 14.1229 7.6906 14.0234 7.81275 13.8931C7.9349 13.7628 8.03238 13.6046 8.09904 13.4284C8.1657 13.2523 8.20008 13.062 8.2 12.8696V11.6003M7.6 8.12466H13H7.6ZM13 8.12466L11.0002 5.34414L13 8.12466ZM13 8.12466L11.0002 10.9052L13 8.12466Z"
        stroke="currentcolor"
        stroke-width="1.2"
        stroke-linecap="round"
        stroke-linejoin="round"
    />
</svg>