<svg 
    width="22" 
    height="22"
    viewBox="0 0 14 15"
    fill="none"
    xmlns="http://www.w3.org/2000/svg"
>
    <g style="mix-blend-mode:darken">
        <rect y="0.538635" width="14" height="14.3162" fill="currentcolor"/>
    </g>
    <path d="M1.54985 6.37169C1.57717 6.06418 1.73174 5.77725 1.98276 5.56804C2.23378 5.35883 2.56284 5.24269 2.9044 5.24275H11.0956C11.4372 5.24269 11.7662 5.35883 12.0172 5.56804C12.2683 5.77725 12.4228 6.06418 12.4502 6.37169L12.9956 12.5072C13.0106 12.676 12.9868 12.8459 12.9256 13.006C12.8643 13.1661 12.7671 13.313 12.6399 13.4375C12.5127 13.562 12.3584 13.6613 12.1866 13.7293C12.0148 13.7973 11.8293 13.8324 11.6418 13.8325H2.35823C2.17069 13.8324 1.98519 13.7973 1.81341 13.7293C1.64163 13.6613 1.48729 13.562 1.36011 13.4375C1.23293 13.313 1.13567 13.1661 1.07444 13.006C1.01321 12.8459 0.989351 12.676 1.00435 12.5072L1.54985 6.37169V6.37169Z"
        stroke="currentcolor"
        stroke-linecap="round"
        stroke-linejoin="round"
        stroke-width="1.25"
    />
    <path 
        d="M9.7167 7.08331V4.01555C9.7167 3.36466 9.43041 2.74042 8.92083 2.28017C8.41124 1.81992 7.72009 1.56135 6.99943 1.56135C6.27877 1.56135 5.58762 1.81992 5.07803 2.28017C4.56845 2.74042 4.28217 3.36466 4.28217 4.01555V7.08331"
        stroke="currentcolor"
        stroke-linecap="round"
        stroke-linejoin="round"
        stroke-width="1.25"
    />
</svg>