<svg
    width="22"
    height="22"
    viewBox="0 0 14 16"
    fill="none"
    xmlns="http://www.w3.org/2000/svg"
>
    <g style="mix-blend-mode:darken">
        <rect y="0.943329" width="14" height="14.3162" fill="currentcolor"/>
    </g>
    <path 
        fill-rule="evenodd"
        clip-rule="evenodd"
        d="M1 1.96584H1.75V13.4699H13V14.2369H1V1.96584ZM12.1128 4.35332C12.1509 4.38523 12.1825 4.42451 12.2058 4.46892C12.2291 4.51334 12.2436 4.56201 12.2484 4.61215C12.2533 4.66229 12.2485 4.71293 12.2342 4.76116C12.2199 4.80939 12.1965 4.85427 12.1652 4.89324L8.79025 9.1114C8.75708 9.15281 8.7158 9.18665 8.66906 9.21076C8.62233 9.23486 8.57118 9.2487 8.5189 9.25137C8.46662 9.25404 8.41438 9.24549 8.36552 9.22628C8.31667 9.20706 8.2723 9.17759 8.23525 9.13978L6.295 7.15571L3.553 11.0111C3.49302 11.0891 3.4058 11.1403 3.30969 11.1539C3.21357 11.1675 3.11604 11.1425 3.03758 11.0841C2.95912 11.0257 2.90585 10.9385 2.88896 10.8408C2.87207 10.7431 2.89287 10.6425 2.947 10.5601L5.947 6.34199C5.97884 6.29713 6.01982 6.25987 6.0671 6.23277C6.11438 6.20566 6.16684 6.18936 6.22088 6.18499C6.27491 6.18061 6.32923 6.18827 6.38009 6.20743C6.43096 6.22659 6.47715 6.2568 6.5155 6.29597L8.47225 8.29768L11.5848 4.407C11.616 4.368 11.6544 4.33567 11.6978 4.31187C11.7412 4.28806 11.7888 4.27324 11.8379 4.26825C11.8869 4.26327 11.9364 4.26821 11.9836 4.28281C12.0308 4.29741 12.0746 4.32136 12.1128 4.35332Z"
        fill="currentcolor"
        stroke="currentcolor"
        stroke-width="0.5"
    />
</svg>